<?xml version="1.0" encoding="utf-8"?>
<!-- Generator: Adobe Illustrator 16.0.0, SVG Export Plug-In . SVG Version: 6.00 Build 0)  -->
<!DOCTYPE svg PUBLIC "-//W3C//DTD SVG 1.1//EN" "http://www.w3.org/Graphics/SVG/1.1/DTD/svg11.dtd">
<svg version="1.1" id="Layer_1" xmlns="http://www.w3.org/2000/svg" xmlns:xlink="http://www.w3.org/1999/xlink" x="0px" y="0px"
	 width="255.414px" height="149.516px" viewBox="0 0 255.414 149.516" enable-background="new 0 0 255.414 149.516"
	 xml:space="preserve">
<g>
	<path fill="#003764" d="M112.43,13.543v-0.026c0,0.006-0.006,0.009-0.006,0.017C112.424,13.54,112.43,13.536,112.43,13.543"/>
	<path fill="#003764" d="M136.547,19.58c-0.004-0.021-0.025-0.04-0.045-0.063c0.008,0.016,0.008,0.025,0.027,0.04
		C136.543,19.568,136.543,19.568,136.547,19.58"/>
	<path fill="#003764" d="M142.984,49.231v0.023c0-0.006,0.006-0.012,0.006-0.017c0-0.006-0.006-0.004-0.006-0.004"/>
	<path fill="#003764" d="M118.867,43.187c0.018,0.024,0.031,0.044,0.043,0.065c-0.006-0.012-0.012-0.021-0.012-0.038
		C118.877,43.203,118.873,43.203,118.867,43.187"/>
	<path fill="#003764" d="M90.984,58.105l24.729-16.554c-0.547-1.111-1.059-2.26-1.529-3.436l-24.49,16.397
		C90.139,55.793,90.584,57.012,90.984,58.105"/>
	<path fill="#003764" d="M88.951,52.407l24.434-16.354c-0.672-1.844-1.264-3.759-1.76-5.714l-24.506,16.41
		C87.65,48.52,88.297,50.474,88.951,52.407"/>
	<path fill="#003764" d="M92.105,61.122c0.375,1.016,0.619,1.646,0.619,1.646l25.344-17.106c-0.293-0.441-0.574-0.898-0.854-1.355
		L92.105,61.122z"/>
	<path fill="#003764" d="M126.18,7.244c0.07,0.039,0.146,0.067,0.227,0.117c-8.641-6.542-15.959-6.724-22.209-4.786
		c-13.949,4.335-22.48,20.389-18.041,40.6c0.17,0.737,0.383,1.584,0.643,2.506l24.555-16.438
		c-2.934-12.526-1.852-25.712,7.773-24.615c-1.785,0-4.383,0.789-5.992,5.14c-0.311,0.838-0.572,2.108-0.705,3.751
		c6.221-10.823,19.701,0.463,24.072,5.999C133.453,14.324,130.004,9.887,126.18,7.244"/>
	<path fill="#003764" d="M164.529,4.937L139.832,21.48c0.539,1.118,1.039,2.265,1.514,3.441l24.48-16.386
		C165.371,7.259,164.939,6.042,164.529,4.937"/>
	<path fill="#003764" d="M166.561,10.646l-24.424,16.354c0.658,1.846,1.242,3.771,1.729,5.725l24.512-16.415
		C167.865,14.552,167.225,12.59,166.561,10.646"/>
	<path fill="#003764" d="M168.693,17.383L144.131,33.83c2.85,12.43,1.711,25.399-7.834,24.311c1.775,0,4.373-0.782,5.982-5.138
		c0.32-0.841,0.565-2.114,0.705-3.749c-6.221,10.823-19.695-0.461-24.074-6.002c3.051,5.192,6.5,9.631,10.316,12.279
		c-0.068-0.044-0.131-0.071-0.216-0.116c8.64,6.536,15.955,6.72,22.205,4.777c13.947-4.332,22.479-20.389,18.041-40.594
		C169.109,18.937,168.916,18.187,168.693,17.383"/>
	<path fill="#003764" d="M163.422,1.919C162.979,0.743,162.682,0,162.682,0l-25.33,17.107c0.34,0.521,0.672,1.055,0.992,1.597
		L163.422,1.919z"/>
	<path fill="#003764" d="M252.035,115.911v-3.478l1.18,3.478h0.49l1.188-3.418v3.418h0.521v-4.084h-0.732l-0.977,2.844
		c-0.098,0.289-0.174,0.506-0.209,0.656c-0.047-0.142-0.111-0.338-0.201-0.611l-0.969-2.889h-0.805v4.084H252.035z M249.619,115.911
		v-3.603h1.357v-0.481h-3.244v0.481h1.354v3.603H249.619z M170.709,73.375v7.353h14.336v35.179h7.354v-35.18h14.332v-7.353
		L170.709,73.375L170.709,73.375z M248.053,73.375v3.964c0,7.674-6.232,13.916-13.906,13.916v-0.019
		c-7.674,0-13.901-6.245-13.901-13.913v-3.948h-7.363v3.964c0.015,10.467,7.617,19.186,17.591,20.93v17.638h7.356V98.284
		c9.969-1.744,17.586-10.474,17.586-20.945v-3.964H248.053z M163.811,73.375h-7.34v42.53h7.34V73.375z M106.74,73.375h-7.346v42.53
		h7.346V73.375z M134.715,73.375c-11.721,0.01-21.246,9.548-21.246,21.265h-0.02c0,11.728,9.539,21.267,21.266,21.267h14.316v-7.355
		h-14.316c-7.666,0-13.912-6.236-13.912-13.91h0.016c0-7.67,6.236-13.912,13.916-13.912h14.298v-7.353L134.715,73.375
		L134.715,73.375z M56.773,115.906V93.887c0-7.668,6.232-13.91,13.908-13.91v0.019c7.672,0,13.914,6.239,13.914,13.914v21.996h7.354
		V93.887c-0.008-11.719-9.539-21.244-21.268-21.244v-0.021c-11.721,0-21.26,9.545-21.26,21.266v22.019H56.773z M42.525,73.375
		v22.019c0,11.726-9.535,21.263-21.26,21.263v-0.013c-11.721,0-21.26-9.535-21.266-21.25V73.375h7.352v22.001
		c0,7.674,6.248,13.912,13.914,13.912v0.018c7.67,0,13.912-6.244,13.912-13.912V73.375H42.525z"/>
	<path fill="#003764" d="M94.254,138.545c2.256,0,4.184,1.744,4.572,4.07h-9.143C90.08,140.282,92,138.545,94.254,138.545
		 M99.928,143.45c-0.006-0.933-0.217-1.828-0.605-2.652c-0.844-1.75-2.438-2.967-4.262-3.246c-0.117-0.018-0.234-0.029-0.336-0.043
		l-0.105-0.008c-0.236-0.017-0.484-0.017-0.738,0l-0.09,0.012c-0.105,0.008-0.195,0.021-0.303,0.033l-0.072,0.01
		c-0.125,0.021-0.238,0.041-0.359,0.07l-0.066,0.016c-0.1,0.021-0.195,0.045-0.293,0.08l-0.076,0.021
		c-0.229,0.067-0.451,0.159-0.672,0.268l-0.059,0.031c-0.1,0.039-0.178,0.088-0.27,0.133l-0.057,0.033
		c-0.105,0.062-0.213,0.133-0.34,0.213c-0.098,0.065-0.189,0.131-0.281,0.199l-0.033,0.024c-0.723,0.562-1.318,1.306-1.73,2.152
		c-0.398,0.83-0.605,1.766-0.605,2.699c0,0.948,0.203,1.858,0.605,2.705c0.838,1.739,2.416,2.95,4.223,3.237l0.041,0.009
		c0.117,0.014,0.234,0.03,0.348,0.038l0.09,0.009c0.115,0.01,0.238,0.014,0.373,0.014c0.121,0,0.248-0.004,0.365-0.014l0.105-0.009
		c0.096-0.008,0.193-0.021,0.301-0.034l0.066-0.009c0.117-0.018,0.229-0.041,0.346-0.067l0.08-0.019
		c0.098-0.022,0.189-0.053,0.279-0.08l0.08-0.024c0.229-0.066,0.461-0.158,0.674-0.264l0.062-0.033
		c0.111-0.047,0.209-0.104,0.312-0.16l0.031-0.019c0.107-0.061,0.209-0.123,0.322-0.198c0.102-0.068,0.207-0.146,0.27-0.201
		l0.064-0.029l0.006-0.02c0.711-0.556,1.299-1.289,1.703-2.127c0.139-0.291,0.262-0.609,0.357-0.937l0.078-0.283h-1.074
		l-0.055,0.148c-0.648,1.988-2.404,3.32-4.375,3.32c-2.332,0-4.312-1.854-4.611-4.316c-0.016-0.154-0.021-0.299-0.027-0.463h10.312
		v-0.221H99.928z"/>
	<path fill="#003764" d="M140.834,142.616h-9.135c0.391-2.334,2.318-4.07,4.568-4.07
		C138.512,138.545,140.438,140.282,140.834,142.616 M141.945,143.45c-0.006-0.931-0.215-1.824-0.613-2.652
		c-0.836-1.75-2.426-2.967-4.26-3.246c-0.113-0.018-0.23-0.029-0.334-0.043l-0.096-0.008c-0.252-0.015-0.5-0.015-0.748,0
		l-0.097,0.012c-0.103,0.006-0.194,0.021-0.291,0.033l-0.071,0.01c-0.125,0.021-0.248,0.039-0.359,0.07l-0.066,0.016
		c-0.098,0.021-0.197,0.045-0.295,0.078l-0.08,0.023c-0.225,0.071-0.453,0.164-0.678,0.268l-0.057,0.031
		c-0.086,0.039-0.178,0.088-0.271,0.133l-0.069,0.043c-0.099,0.062-0.205,0.127-0.32,0.205c-0.098,0.066-0.189,0.129-0.289,0.197
		l-0.023,0.024c-0.727,0.562-1.324,1.306-1.729,2.152c-0.4,0.83-0.609,1.766-0.609,2.701c0,0.946,0.203,1.856,0.609,2.705
		c0.838,1.746,2.426,2.963,4.26,3.244c0.117,0.016,0.229,0.03,0.346,0.038l0.086,0.009c0.123,0.01,0.244,0.014,0.371,0.014h0.006
		c0.123,0,0.242-0.004,0.367-0.014l0.104-0.009c0.098-0.008,0.194-0.021,0.299-0.032l0.062-0.011
		c0.121-0.018,0.241-0.041,0.356-0.067l0.073-0.019c0.097-0.022,0.193-0.053,0.279-0.08l0.084-0.022
		c0.23-0.068,0.455-0.156,0.678-0.266l0.062-0.033c0.107-0.047,0.209-0.104,0.318-0.166c0.114-0.062,0.223-0.129,0.344-0.211
		c0.106-0.068,0.209-0.146,0.295-0.209l0.065-0.05l0.007-0.01c0.7-0.555,1.28-1.283,1.672-2.106
		c0.147-0.299,0.269-0.613,0.356-0.937l0.086-0.285h-1.078l-0.045,0.148c-0.655,1.988-2.428,3.322-4.391,3.322
		c-2.324,0-4.309-1.855-4.6-4.316c-0.02-0.158-0.025-0.309-0.035-0.463h10.326L141.945,143.45z"/>
	<path fill="#003764" d="M169.258,138.545c2.248,0,4.176,1.736,4.568,4.07h-9.137C165.09,140.282,167.008,138.545,169.258,138.545
		 M174.936,143.45c-0.006-0.931-0.209-1.824-0.606-2.652c-0.838-1.75-2.427-2.967-4.259-3.246c-0.12-0.018-0.233-0.029-0.34-0.043
		l-0.098-0.008c-0.242-0.015-0.492-0.017-0.744,0l-0.094,0.012c-0.102,0.008-0.189,0.021-0.297,0.033l-0.07,0.01
		c-0.121,0.021-0.234,0.041-0.354,0.07l-0.07,0.016c-0.099,0.021-0.194,0.045-0.291,0.08l-0.082,0.021
		c-0.229,0.071-0.446,0.164-0.676,0.268l-0.062,0.031c-0.091,0.039-0.179,0.088-0.259,0.133l-0.028,0.02
		c0,0-0.013,0.005-0.019,0.011l-0.053,0.024c-0.095,0.056-0.188,0.119-0.306,0.191c-0.1,0.07-0.203,0.139-0.309,0.225
		c-0.719,0.558-1.318,1.302-1.725,2.152c-0.406,0.83-0.609,1.766-0.609,2.699c0,0.946,0.199,1.858,0.609,2.705
		c0.83,1.737,2.408,2.95,4.219,3.237l0.035,0.009c0.121,0.014,0.234,0.03,0.346,0.038l0.084,0.009
		c0.135,0.01,0.256,0.014,0.379,0.014c0.127,0,0.25-0.004,0.375-0.014l0.098-0.009c0.099-0.008,0.193-0.021,0.299-0.034l0.072-0.009
		c0.119-0.018,0.234-0.041,0.347-0.067l0.071-0.019c0.103-0.022,0.203-0.053,0.289-0.08l0.082-0.024
		c0.226-0.066,0.445-0.158,0.68-0.264l0.058-0.033c0.104-0.047,0.209-0.104,0.315-0.166c0.111-0.062,0.224-0.129,0.347-0.211
		c0.104-0.068,0.207-0.144,0.295-0.209l0.062-0.049l0.01-0.011c0.703-0.555,1.279-1.283,1.674-2.108
		c0.139-0.297,0.262-0.611,0.361-0.933l0.08-0.287h-1.076l-0.053,0.148c-0.656,1.988-2.41,3.32-4.384,3.32
		c-2.325,0-4.299-1.854-4.604-4.316c-0.021-0.15-0.025-0.297-0.031-0.463h10.314v-0.222H174.936z"/>
	<path fill="#003764" d="M193.432,138.545c2.258,0,4.187,1.744,4.572,4.07h-9.145C189.262,140.282,191.184,138.545,193.432,138.545
		 M199.104,143.45c-0.002-0.931-0.213-1.824-0.602-2.652c-0.844-1.75-2.428-2.967-4.264-3.246c-0.109-0.018-0.228-0.029-0.34-0.043
		l-0.09-0.008c-0.25-0.015-0.496-0.017-0.744,0l-0.101,0.012c-0.096,0.008-0.194,0.021-0.291,0.033l-0.078,0.01
		c-0.118,0.021-0.233,0.041-0.354,0.07l-0.074,0.016c-0.097,0.021-0.187,0.047-0.287,0.08l-0.078,0.021
		c-0.231,0.071-0.452,0.164-0.676,0.268l-0.058,0.025c-0.096,0.045-0.178,0.094-0.271,0.139l-0.09,0.053v0.002
		c-0.103,0.056-0.197,0.119-0.31,0.191c-0.092,0.065-0.18,0.129-0.274,0.199l-0.082,0.063c-0.703,0.558-1.278,1.287-1.681,2.113
		c-0.403,0.834-0.612,1.768-0.612,2.699c0,0.946,0.209,1.858,0.612,2.705c0.839,1.737,2.408,2.95,4.218,3.237l0.041,0.009
		c0.116,0.014,0.233,0.03,0.344,0.038l0.097,0.009c0.118,0.01,0.246,0.014,0.371,0.014h0.004c0.123,0,0.246-0.004,0.393-0.014
		l0.08-0.009c0.09-0.008,0.186-0.021,0.297-0.034l0.061-0.009c0.123-0.018,0.24-0.041,0.357-0.067l0.074-0.019
		c0.092-0.022,0.193-0.053,0.275-0.08l0.086-0.024c0.223-0.066,0.452-0.158,0.682-0.264l0.051-0.033
		c0.113-0.047,0.215-0.104,0.316-0.16l0.062-0.031l0,0c0.09-0.059,0.19-0.117,0.293-0.186c0.092-0.062,0.185-0.129,0.274-0.201
		l0.072-0.025l0.015-0.041c0.702-0.555,1.282-1.283,1.678-2.108c0.142-0.297,0.262-0.611,0.356-0.937l0.082-0.283h-1.073
		l-0.056,0.148c-0.651,1.988-2.41,3.32-4.381,3.32c-2.332,0-4.305-1.854-4.604-4.314c-0.02-0.158-0.029-0.305-0.039-0.465h10.322
		L199.104,143.45z"/>
	<polygon fill="#003764" points="88.959,137.772 87.492,137.772 80.479,144.784 80.479,132.506 79.439,132.506 79.439,149.2 
		80.479,149.2 80.479,146.258 80.484,146.254 83.029,143.711 87.576,149.2 88.939,149.2 83.789,142.944 	"/>
	<polygon fill="#003764" points="55.297,141.1 49.104,132.504 48.168,132.504 48.168,149.2 49.209,149.2 49.209,134.448 
		55.297,142.917 61.377,134.448 61.377,149.2 62.414,149.2 62.414,132.504 61.494,132.504 	"/>
	<polygon fill="#003764" points="111.904,132.506 110.867,132.506 110.867,149.2 120.43,149.2 120.43,148.167 111.904,148.167 	"/>
	<rect x="122.846" y="137.772" fill="#003764" width="1.033" height="11.429"/>
	<path fill="#003764" d="M131.176,137.772h-3.354v-1.053c0-1.643,1.491-3.135,3.135-3.135h0.219v-1.078h-0.219
		c-2.311,0-4.197,1.889-4.197,4.213v12.48h1.062v-10.371h3.354V137.772L131.176,137.772z"/>
	<path fill="#003764" d="M178.094,132.506h-1.055v12.793c0,2.324,1.877,4.217,4.189,4.217h0.223v-1.084h-0.223
		c-1.636,0-3.136-1.494-3.136-3.133v-6.467h3.357v-1.062h-3.357L178.094,132.506L178.094,132.506z"/>
	<path fill="#003764" d="M183.791,132.506h-1.055v12.793c0,2.324,1.877,4.217,4.193,4.217h0.223v-1.084h-0.223
		c-1.664,0-3.14-1.463-3.14-3.133v-6.467h3.36v-1.062h-3.36L183.791,132.506L183.791,132.506z"/>
	<path fill="#003764" d="M156.365,139.708h-3.215v-6.178h3.211c1.713,0.043,3.076,1.407,3.104,3.1
		C159.438,138.35,158.082,139.708,156.365,139.708 M157.439,148.176h-4.289v-7.398h4.289c2.021,0,3.67,1.646,3.67,3.677
		C161.109,146.543,159.488,148.176,157.439,148.176 M158.828,139.95c1.059-0.779,1.68-1.984,1.68-3.318
		c0-2.277-1.857-4.125-4.143-4.125h-4.242V149.2h5.316c2.6,0,4.721-2.132,4.721-4.746
		C162.16,142.366,160.785,140.551,158.828,139.95"/>
	<path fill="#003764" d="M207.514,137.487c-0.938,0-1.869,0.214-2.707,0.613c-0.896,0.431-1.684,1.078-2.248,1.863v-2.191H201.5
		V149.2h1.059v-6.07c0.025-2.307,1.875-4.271,4.312-4.564c0.229-0.028,0.438-0.041,0.643-0.041h0.217v-1.037L207.514,137.487
		L207.514,137.487z"/>
	<path fill="#003764" d="M70.617,138.545c2.559,0,4.646,2.221,4.646,4.951c0,2.746-2.088,4.979-4.646,4.979
		c-2.558,0-4.646-2.231-4.646-4.979C65.971,140.766,68.059,138.545,70.617,138.545 M75.264,140.061
		c-1.057-1.586-2.807-2.574-4.646-2.574c-3.135,0-5.684,2.699-5.684,6.011s2.549,6.012,5.684,6.012c1.877,0,3.596-0.965,4.646-2.562
		v2.254h1.031v-11.429h-1.031V140.061L75.264,140.061z"/>
	<path fill="#003764" d="M123.361,134.733c-0.346,0-0.627,0.279-0.627,0.627c0,0.345,0.281,0.63,0.627,0.63
		c0.344,0,0.629-0.285,0.629-0.63C123.99,135.012,123.705,134.733,123.361,134.733"/>
</g>
</svg>
