<?xml version="1.0" encoding="utf-8"?>
<!-- Generator: Adobe Illustrator 16.0.0, SVG Export Plug-In . SVG Version: 6.00 Build 0)  -->
<!DOCTYPE svg PUBLIC "-//W3C//DTD SVG 1.1//EN" "http://www.w3.org/Graphics/SVG/1.1/DTD/svg11.dtd">
<svg version="1.1" id="Layer_1" xmlns="http://www.w3.org/2000/svg" xmlns:xlink="http://www.w3.org/1999/xlink" x="0px" y="0px"
	 width="30px" height="30px" viewBox="0 0 30 30" enable-background="new 0 0 30 30" xml:space="preserve">
<g>
	<path fill-rule="evenodd" clip-rule="evenodd" fill="#FFFFFF" d="M24.709,15.896c-0.021-0.593-0.529-1.069-1.119-1.131
		c-0.841-0.089-1.472,0.48-1.481,1.361c-0.012,1.062-0.005,2.126-0.007,3.186c0,0.075-0.013,0.155-0.023,0.272
		c-0.109-0.11-0.187-0.179-0.259-0.249c-2.223-2.195-4.44-4.39-6.666-6.573c-0.187-0.188-0.405-0.354-0.641-0.459
		c-0.546-0.236-1.2-0.011-1.536,0.476c-0.361,0.527-0.289,1.203,0.204,1.697c0.794,0.796,1.599,1.584,2.401,2.374
		c1.535,1.515,3.071,3.024,4.607,4.539c-0.009,0.025-0.016,0.045-0.023,0.067c-0.084,0-0.164,0-0.246,0
		c-1.066,0.003-2.132,0.007-3.199,0.003c-0.525,0-0.941,0.188-1.221,0.637c-0.467,0.755-0.027,1.974,1.281,1.963
		c2.151-0.019,4.303,0,6.452-0.007c0.99,0,1.494-0.499,1.498-1.477c0.007-1.246,0.006-2.498,0.005-3.748
		C24.734,17.852,24.743,16.874,24.709,15.896z"/>
	<path fill="none" d="M16.784,19.717h-5.327v6.399c0,0.969,0.789,1.757,1.758,1.757h12.9c0.97,0,1.759-0.788,1.759-1.757V13.217
		c0-0.973-0.789-1.759-1.759-1.759h-6.399v5.329C19.716,18.401,18.401,19.717,16.784,19.717z"/>
	<path fill="none" d="M18.544,16.787v-5.329h-5.329c-0.969,0-1.758,0.787-1.758,1.759v5.325h5.327
		C17.754,18.542,18.544,17.753,18.544,16.787z"/>
	<path fill="none" d="M13.215,10.283h5.329V3.887c0-0.973-0.79-1.761-1.76-1.761H3.886c-0.971,0-1.76,0.788-1.76,1.761v12.899
		c0,0.967,0.789,1.755,1.76,1.755h6.399v-5.325C10.285,11.603,11.601,10.283,13.215,10.283z"/>
	<path fill="#FFFFFF" d="M26.115,10.283h-4.98v1.175h4.98c0.97,0,1.759,0.787,1.759,1.759v12.899c0,0.969-0.789,1.757-1.759,1.757
		h-12.9c-0.969,0-1.758-0.788-1.758-1.757v-5.275h-1.172v5.275c0,1.617,1.315,2.931,2.93,2.931h12.9
		c1.616,0,2.932-1.314,2.932-2.931V13.217C29.047,11.603,27.731,10.283,26.115,10.283z"/>
	<path fill="#FFFFFF" d="M16.784,0.953H3.886c-1.617,0-2.933,1.317-2.933,2.934v12.899c0,1.615,1.315,2.93,2.933,2.93h6.399h1.172
		h5.327c0.19,0,0.374-0.021,0.554-0.057l-1.117-1.118h-4.764h-1.172H3.886c-0.971,0-1.76-0.789-1.76-1.755V3.887
		c0-0.973,0.789-1.761,1.76-1.761h12.898c0.97,0,1.76,0.788,1.76,1.761v6.396v1.175v3.571l1.172,1.171v-4.743v-1.175V3.887
		C19.716,2.271,18.401,0.953,16.784,0.953z"/>
</g>
</svg>
