<?xml version="1.0" encoding="utf-8"?>
<!-- Generator: Adobe Illustrator 16.0.0, SVG Export Plug-In . SVG Version: 6.00 Build 0)  -->
<!DOCTYPE svg PUBLIC "-//W3C//DTD SVG 1.1//EN" "http://www.w3.org/Graphics/SVG/1.1/DTD/svg11.dtd">
<svg version="1.1" id="Layer_1" xmlns="http://www.w3.org/2000/svg" xmlns:xlink="http://www.w3.org/1999/xlink" x="0px" y="0px"
	 width="30px" height="30px" viewBox="0 0 30 30" enable-background="new 0 0 30 30" xml:space="preserve">
<g>
	<path fill="#FFFFFF" d="M16.3,29.614H6.312c-3.156,0-5.72-2.564-5.72-5.719V6.108c0-3.153,2.563-5.723,5.72-5.723H16.3
		c3.153,0,5.722,2.569,5.722,5.723v6.648h-1.455V6.108c0-2.354-1.914-4.268-4.267-4.268H6.312c-2.352,0-4.264,1.914-4.264,4.268
		v17.787c0,2.354,1.912,4.266,4.264,4.266H16.3c2.353,0,4.267-1.912,4.267-4.266v-4.713h1.455v4.713
		C22.021,27.05,19.453,29.614,16.3,29.614z"/>
	<polygon fill="#FFFFFF" points="29.408,14.567 14.389,14.567 14.389,10.479 7.562,15.938 14.389,21.396 14.389,17.302 
		29.408,17.302 	"/>
</g>
</svg>
