<?xml version="1.0" encoding="utf-8"?>
<!-- Generator: Adobe Illustrator 16.0.0, SVG Export Plug-In . SVG Version: 6.00 Build 0)  -->
<!DOCTYPE svg PUBLIC "-//W3C//DTD SVG 1.1//EN" "http://www.w3.org/Graphics/SVG/1.1/DTD/svg11.dtd">
<svg version="1.1" id="Layer_1" xmlns="http://www.w3.org/2000/svg" xmlns:xlink="http://www.w3.org/1999/xlink" x="0px" y="0px"
	 width="30px" height="30px" viewBox="0 0 30 30" enable-background="new 0 0 30 30" xml:space="preserve">
<path fill="#FFFFFF" d="M21.39,22.943l-6.231-1.047c-1.127,2.766-3.834,4.713-7.004,4.713c-4.176,0-7.562-3.387-7.562-7.562
	c0-4.177,3.386-7.564,7.562-7.564c1.76,0,3.377,0.61,4.662,1.615l3.859-3.155c-0.174-0.502-0.271-1.041-0.271-1.602
	c0-2.735,2.216-4.95,4.948-4.95c2.733,0,4.951,2.215,4.951,4.95c0,2.731-2.218,4.948-4.951,4.948c-0.965,0-1.866-0.282-2.627-0.761
	l-3.82,3.127c0.455,0.906,0.732,1.916,0.79,2.987l6.144,1.028c0.721-1.166,2.006-1.945,3.479-1.945c2.258,0,4.09,1.83,4.09,4.091
	c0,2.257-1.832,4.088-4.09,4.088C23.451,25.904,21.879,24.654,21.39,22.943z"/>
</svg>
