<?xml version="1.0" encoding="utf-8"?>
<!-- Generator: Adobe Illustrator 16.0.0, SVG Export Plug-In . SVG Version: 6.00 Build 0)  -->
<!DOCTYPE svg PUBLIC "-//W3C//DTD SVG 1.1//EN" "http://www.w3.org/Graphics/SVG/1.1/DTD/svg11.dtd">
<svg version="1.1" id="Layer_1" xmlns="http://www.w3.org/2000/svg" xmlns:xlink="http://www.w3.org/1999/xlink" x="0px" y="0px"
	 width="30px" height="30px" viewBox="0 0 30 30" enable-background="new 0 0 30 30" xml:space="preserve">
<path fill="#FFFFFF" d="M23.938,23.321c-1.419,0-2.601,0.988-2.916,2.311h-9.396c-0.152-0.745-0.58-1.384-1.163-1.828l1.176-3.719
	h14.843l2.927-12.828L5.979,4.123L4.1,2.872l0.088-0.408c0-0.992-0.808-1.796-1.799-1.796c-0.99,0-1.797,0.804-1.797,1.796
	s0.807,1.797,1.797,1.797l0.357-0.074L4.949,5.66l3.656,14.425h1.094L8.723,23.18l-0.117-0.013c-1.699,0-3.08,1.381-3.08,3.084
	c0,1.7,1.381,3.081,3.08,3.081c1.264,0,2.348-0.764,2.822-1.85h9.738c0.453,1.083,1.525,1.85,2.772,1.85
	c1.66,0,3.007-1.347,3.007-3.006S25.599,23.321,23.938,23.321z"/>
</svg>
