<?xml version="1.0" encoding="utf-8"?>
<!-- Generator: Adobe Illustrator 16.0.0, SVG Export Plug-In . SVG Version: 6.00 Build 0)  -->
<!DOCTYPE svg PUBLIC "-//W3C//DTD SVG 1.1//EN" "http://www.w3.org/Graphics/SVG/1.1/DTD/svg11.dtd">
<svg version="1.1" id="Layer_1" xmlns="http://www.w3.org/2000/svg" xmlns:xlink="http://www.w3.org/1999/xlink" x="0px" y="0px"
	 width="30px" height="30px" viewBox="0 0 30 30" enable-background="new 0 0 30 30" xml:space="preserve">
<path fill="#FFFFFF" d="M29.408,29.873c0-6.906-4.865-12.673-11.348-14.079c2.973-1.208,5.07-4.122,5.07-7.533
	c0-4.493-3.637-8.135-8.131-8.135c-4.496,0-8.135,3.642-8.135,8.135c0,3.411,2.098,6.324,5.074,7.533
	C5.453,17.2,0.592,22.967,0.592,29.873h13.555C12.99,24.95,11.443,18.559,15,18.559c3.553,0,2.008,6.391,0.85,11.314H29.408z
	 M15.016,18.337c-1.506,0-2.727-1.129-2.916-2.582c0.908,0.35,1.885,0.548,2.916,0.548c1.029,0,2.01-0.199,2.916-0.548
	C17.742,17.208,16.518,18.337,15.016,18.337z"/>
</svg>
