<?xml version="1.0" encoding="utf-8"?>
<!-- Generator: Adobe Illustrator 16.0.0, SVG Export Plug-In . SVG Version: 6.00 Build 0)  -->
<!DOCTYPE svg PUBLIC "-//W3C//DTD SVG 1.1//EN" "http://www.w3.org/Graphics/SVG/1.1/DTD/svg11.dtd">
<svg version="1.1" id="Layer_1" xmlns="http://www.w3.org/2000/svg" xmlns:xlink="http://www.w3.org/1999/xlink" x="0px" y="0px"
	 width="30px" height="30px" viewBox="0 0 30 30" enable-background="new 0 0 30 30" xml:space="preserve">
<g>
	<path fill-rule="evenodd" clip-rule="evenodd" fill="#FFFFFF" d="M5.291,14.104c0.021,0.593,0.529,1.069,1.119,1.131
		c0.841,0.089,1.472-0.48,1.481-1.361c0.012-1.062,0.005-2.126,0.007-3.186c0-0.075,0.013-0.155,0.023-0.272
		c0.109,0.11,0.187,0.179,0.259,0.249c2.223,2.195,4.44,4.39,6.666,6.573c0.187,0.188,0.405,0.354,0.641,0.459
		c0.546,0.236,1.2,0.011,1.536-0.476c0.361-0.527,0.289-1.203-0.204-1.697c-0.794-0.796-1.599-1.584-2.401-2.374
		c-1.535-1.515-3.071-3.024-4.607-4.539c0.009-0.025,0.016-0.045,0.023-0.067c0.084,0,0.164,0,0.246,0
		c1.066-0.003,2.132-0.007,3.199-0.003c0.525,0,0.941-0.188,1.221-0.637c0.467-0.755,0.027-1.974-1.281-1.963
		c-2.151,0.019-4.303,0-6.452,0.007c-0.99,0-1.494,0.499-1.498,1.477C5.262,8.67,5.263,9.922,5.264,11.172
		C5.266,12.148,5.257,13.126,5.291,14.104z"/>
	<path fill="none" d="M13.216,10.283h5.327V3.884c0-0.969-0.789-1.757-1.758-1.757h-12.9c-0.97,0-1.759,0.788-1.759,1.757v12.899
		c0,0.973,0.789,1.759,1.759,1.759h6.399v-5.329C10.284,11.599,11.599,10.283,13.216,10.283z"/>
	<path fill="none" d="M11.456,13.213v5.329h5.329c0.969,0,1.758-0.787,1.758-1.759v-5.325h-5.327
		C12.246,11.458,11.456,12.247,11.456,13.213z"/>
	<path fill="none" d="M16.785,19.717h-5.329v6.396c0,0.973,0.79,1.761,1.76,1.761h12.898c0.971,0,1.76-0.788,1.76-1.761V13.213
		c0-0.967-0.789-1.755-1.76-1.755h-6.399v5.325C19.715,18.397,18.399,19.717,16.785,19.717z"/>
	<path fill="#FFFFFF" d="M3.885,19.717h4.98v-1.175h-4.98c-0.97,0-1.759-0.787-1.759-1.759V3.884c0-0.969,0.789-1.757,1.759-1.757
		h12.9c0.969,0,1.758,0.788,1.758,1.757v5.275h1.172V3.884c0-1.617-1.315-2.931-2.93-2.931h-12.9c-1.616,0-2.932,1.314-2.932,2.931
		v12.899C0.953,18.397,2.269,19.717,3.885,19.717z"/>
	<path fill="#FFFFFF" d="M13.216,29.047h12.898c1.617,0,2.933-1.317,2.933-2.934V13.213c0-1.615-1.315-2.93-2.933-2.93h-6.399
		h-1.172h-5.327c-0.19,0-0.374,0.021-0.554,0.057l1.117,1.118h4.764h1.172h6.399c0.971,0,1.76,0.789,1.76,1.755v12.899
		c0,0.973-0.789,1.761-1.76,1.761H13.216c-0.97,0-1.76-0.788-1.76-1.761v-6.396v-1.175v-3.571l-1.172-1.171v4.743v1.175v6.396
		C10.284,27.729,11.599,29.047,13.216,29.047z"/>
</g>
</svg>
