<?xml version="1.0" encoding="utf-8"?>
<!-- Generator: Adobe Illustrator 16.0.0, SVG Export Plug-In . SVG Version: 6.00 Build 0)  -->
<!DOCTYPE svg PUBLIC "-//W3C//DTD SVG 1.1//EN" "http://www.w3.org/Graphics/SVG/1.1/DTD/svg11.dtd">
<svg version="1.1" id="Layer_1" xmlns="http://www.w3.org/2000/svg" xmlns:xlink="http://www.w3.org/1999/xlink" x="0px" y="0px"
	 width="30px" height="30px" viewBox="0 0 30 30" enable-background="new 0 0 30 30" xml:space="preserve">
<path fill="#FFFFFF" d="M25.135,27.948c0,0.551-0.672,0.998-1.504,0.998h-5.168v-8.174h-6.924v8.174H6.367
	c-0.83,0-1.5-0.447-1.5-0.998V17.268L15,7.781l10.135,9.486V27.948z M15,6.409L3.883,16.818c-0.377,0.353-0.857,0.527-1.336,0.527
	c-0.521,0-1.043-0.209-1.426-0.619c-0.738-0.788-0.697-2.025,0.09-2.763L15,1.054l13.789,12.91c0.787,0.737,0.828,1.975,0.09,2.763
	c-0.385,0.41-0.904,0.619-1.426,0.619c-0.48,0-0.959-0.175-1.336-0.527L15,6.409z"/>
</svg>
