<?xml version="1.0" encoding="utf-8"?>
<!-- Generator: Adobe Illustrator 16.0.0, SVG Export Plug-In . SVG Version: 6.00 Build 0)  -->
<!DOCTYPE svg PUBLIC "-//W3C//DTD SVG 1.1//EN" "http://www.w3.org/Graphics/SVG/1.1/DTD/svg11.dtd">
<svg version="1.1" id="Layer_1" xmlns="http://www.w3.org/2000/svg" xmlns:xlink="http://www.w3.org/1999/xlink" x="0px" y="0px"
	 width="30px" height="30px" viewBox="0 0 30 30" enable-background="new 0 0 30 30" xml:space="preserve">
<g>
	<rect x="5.534" y="18.205" fill="#FFFFFF" width="11.651" height="2.618"/>
	<g>
		<path fill="#FFFFFF" d="M24.178,9.1c-3.039,0-5.51,2.471-5.51,5.51c0,1.62,0.718,3.065,1.836,4.076v8.778l3.674-3.671l3.673,3.671
			v-8.778c1.12-1.011,1.837-2.456,1.837-4.076C29.688,11.571,27.216,9.1,24.178,9.1z M24.178,18.281
			c-2.03,0-3.674-1.646-3.674-3.671c0-2.03,1.644-3.675,3.674-3.675c2.026,0,3.673,1.645,3.673,3.675
			C27.851,16.636,26.204,18.281,24.178,18.281z"/>
		<rect x="5.534" y="7.726" fill="#FFFFFF" width="11.651" height="2.621"/>
		<rect x="5.534" y="12.964" fill="#FFFFFF" width="11.651" height="2.622"/>
		<path fill="none" stroke="#FFFFFF" stroke-width="2.2872" stroke-linejoin="round" stroke-miterlimit="10" d="M18.074,26.464
			H4.309c-1.475,0-2.671-1.195-2.671-2.671V4.795c0-1.475,1.196-2.671,2.671-2.671h18.33l3.896,4.612"/>
	</g>
</g>
</svg>
