<?xml version="1.0" encoding="utf-8"?>
<!-- Generator: Adobe Illustrator 16.0.0, SVG Export Plug-In . SVG Version: 6.00 Build 0)  -->
<!DOCTYPE svg PUBLIC "-//W3C//DTD SVG 1.1//EN" "http://www.w3.org/Graphics/SVG/1.1/DTD/svg11.dtd">
<svg version="1.1" id="Layer_1" xmlns="http://www.w3.org/2000/svg" xmlns:xlink="http://www.w3.org/1999/xlink" x="0px" y="0px"
	 width="30px" height="30px" viewBox="0 0 30 30" enable-background="new 0 0 30 30" xml:space="preserve">
<path fill="#FFFFFF" d="M22.116,0.767H7.917c-2.391,0-4.33,1.807-4.33,4.034v20.231c-0.482,4.371,4.33,4.201,4.33,4.201h14.199
	c2.391,0,4.33-1.808,4.33-4.037V4.8C26.446,2.574,24.507,0.767,22.116,0.767z M21.954,22.613H8.044
	c-0.398,0-0.723-0.304-0.723-0.675c0-0.369,0.324-0.672,0.723-0.672h13.91c0.398,0,0.723,0.303,0.723,0.672
	C22.677,22.31,22.353,22.613,21.954,22.613z M21.954,17.986H8.044c-0.398,0-0.723-0.3-0.723-0.673c0-0.371,0.324-0.672,0.723-0.672
	h13.91c0.398,0,0.723,0.301,0.723,0.672C22.677,17.686,22.353,17.986,21.954,17.986z M21.954,13.359H8.044
	c-0.398,0-0.723-0.302-0.723-0.673c0-0.372,0.324-0.672,0.723-0.672h13.91c0.398,0,0.723,0.3,0.723,0.672
	C22.677,13.057,22.353,13.359,21.954,13.359z M21.954,8.731H8.044c-0.398,0-0.723-0.3-0.723-0.672c0-0.371,0.324-0.672,0.723-0.672
	h13.91c0.398,0,0.723,0.301,0.723,0.672C22.677,8.431,22.353,8.731,21.954,8.731z"/>
</svg>
