<?xml version="1.0" encoding="utf-8"?>
<!-- Generator: Adobe Illustrator 16.0.0, SVG Export Plug-In . SVG Version: 6.00 Build 0)  -->
<!DOCTYPE svg PUBLIC "-//W3C//DTD SVG 1.1//EN" "http://www.w3.org/Graphics/SVG/1.1/DTD/svg11.dtd">
<svg version="1.1" id="Layer_1" xmlns="http://www.w3.org/2000/svg" xmlns:xlink="http://www.w3.org/1999/xlink" x="0px" y="0px"
	 width="26.125px" height="17.188px" viewBox="0 0 26.125 17.188" enable-background="new 0 0 26.125 17.188" xml:space="preserve">
<g>
	<polygon fill="#999999" points="24.351,0.288 24.132,0.24 2.127,0.24 1.992,0.27 13.132,10.838 	"/>
	<path fill="#999999" d="M25.595,1.353l-7.923,7.449l7.821,7.289c0.124-0.239,0.21-0.498,0.21-0.787V1.913
		C25.703,1.714,25.655,1.529,25.595,1.353z"/>
	<path fill="#999999" d="M0.677,1.268C0.602,1.467,0.554,1.685,0.554,1.913v13.391c0,0.245,0.057,0.473,0.145,0.682l7.896-7.21
		L0.677,1.268z"/>
	<polygon fill="#999999" points="13.126,13.073 9.78,9.899 2.044,16.959 2.127,16.977 24.06,16.977 16.484,9.918 	"/>
</g>
</svg>
