<?xml version="1.0" encoding="utf-8"?>
<!-- Generator: Adobe Illustrator 16.0.0, SVG Export Plug-In . SVG Version: 6.00 Build 0)  -->
<!DOCTYPE svg PUBLIC "-//W3C//DTD SVG 1.1//EN" "http://www.w3.org/Graphics/SVG/1.1/DTD/svg11.dtd">
<svg version="1.1" id="Layer_1" xmlns="http://www.w3.org/2000/svg" xmlns:xlink="http://www.w3.org/1999/xlink" x="0px" y="0px"
	 width="40px" height="29px" viewBox="0 0 40 29" enable-background="new 0 0 40 29" xml:space="preserve">
<g>
	<polyline fill="#FFFFFF" points="13.094,6.435 13.094,6.422 13.089,6.429 13.094,6.435 	"/>
	<path fill="#FFFFFF" d="M23.996,9.163c-0.004-0.009-0.011-0.018-0.019-0.028c0.001,0.006,0.001,0.012,0.011,0.017
		C23.992,9.157,23.992,9.157,23.996,9.163"/>
	<polyline fill="#FFFFFF" points="26.904,22.568 26.904,22.578 26.91,22.57 26.904,22.57 	"/>
	<path fill="#FFFFFF" d="M16.002,19.836c0.009,0.012,0.017,0.02,0.021,0.027c-0.002-0.004-0.005-0.008-0.005-0.016
		C16.008,19.842,16.007,19.842,16.002,19.836"/>
	<path fill="#FFFFFF" d="M3.398,26.578l11.18-7.48c-0.249-0.504-0.479-1.023-0.691-1.555L2.815,24.955
		C3.017,25.533,3.218,26.086,3.398,26.578"/>
	<path fill="#FFFFFF" d="M2.479,24.004l11.044-7.393c-0.303-0.836-0.568-1.7-0.793-2.583L1.65,21.445
		C1.89,22.246,2.183,23.129,2.479,24.004"/>
	<path fill="#FFFFFF" d="M3.904,27.943c0.172,0.459,0.281,0.744,0.281,0.744l11.458-7.734c-0.134-0.199-0.262-0.406-0.385-0.613
		L3.904,27.943z"/>
	<path fill="#FFFFFF" d="M19.311,3.586c0.031,0.018,0.064,0.032,0.102,0.054c-3.906-2.958-7.215-3.041-10.04-2.166
		C3.066,3.436-0.792,10.693,1.217,19.83c0.076,0.332,0.171,0.717,0.29,1.133l11.1-7.431c-1.327-5.663-0.836-11.624,3.515-11.129
		c-0.807,0-1.982,0.357-2.71,2.323c-0.14,0.381-0.259,0.955-0.317,1.696C15.904,1.53,22,6.633,23.978,9.135
		C22.598,6.788,21.038,4.781,19.311,3.586"/>
	<path fill="#FFFFFF" d="M36.647,2.543L25.48,10.021c0.246,0.506,0.469,1.024,0.685,1.556l11.068-7.408
		C37.027,3.593,36.832,3.043,36.647,2.543"/>
	<path fill="#FFFFFF" d="M37.564,5.124l-11.041,7.393c0.297,0.834,0.561,1.706,0.781,2.588l11.082-7.42
		C38.153,6.891,37.865,6.003,37.564,5.124"/>
	<path fill="#FFFFFF" d="M38.529,8.169l-11.105,7.436c1.288,5.62,0.773,11.483-3.541,10.991c0.803,0,1.978-0.354,2.704-2.324
		c0.145-0.379,0.255-0.953,0.317-1.693c-2.811,4.893-8.902-0.207-10.881-2.715c1.378,2.348,2.938,4.355,4.664,5.553
		c-0.031-0.02-0.061-0.033-0.098-0.053c3.905,2.953,7.212,3.037,10.039,2.16c6.303-1.957,10.162-9.217,8.154-18.353
		C38.717,8.873,38.629,8.534,38.529,8.169"/>
	<path fill="#FFFFFF" d="M36.145,1.179c-0.199-0.532-0.333-0.867-0.333-0.867L24.359,8.046c0.154,0.235,0.304,0.476,0.449,0.722
		L36.145,1.179z"/>
</g>
</svg>
