<?xml version="1.0" encoding="utf-8"?>
<!-- Generator: Adobe Illustrator 16.0.0, SVG Export Plug-In . SVG Version: 6.00 Build 0)  -->
<!DOCTYPE svg PUBLIC "-//W3C//DTD SVG 1.1//EN" "http://www.w3.org/Graphics/SVG/1.1/DTD/svg11.dtd">
<svg version="1.1" id="Layer_1" xmlns="http://www.w3.org/2000/svg" xmlns:xlink="http://www.w3.org/1999/xlink" x="0px" y="0px"
	 width="30px" height="30px" viewBox="0 0 30 30" enable-background="new 0 0 30 30" xml:space="preserve">
<g>
	<g>
		<path fill="#FFFFFF" d="M7.461,15.602c-3.794,0-6.868,3.078-6.868,6.874c0,3.79,3.074,6.865,6.868,6.865
			c3.793,0,6.869-3.075,6.869-6.865C14.33,18.68,11.254,15.602,7.461,15.602z M7.527,28.083c-3.096,0.036-5.639-2.444-5.676-5.543
			s2.444-5.64,5.543-5.677c3.1-0.038,5.639,2.446,5.677,5.545C13.109,25.504,10.627,28.046,7.527,28.083z"/>
		<path fill="#FFFFFF" d="M7.461,18.345c-2.279,0-4.129,1.847-4.129,4.131c0,2.277,1.85,4.129,4.129,4.129
			c2.281,0,4.131-1.852,4.131-4.129C11.592,20.191,9.742,18.345,7.461,18.345z"/>
	</g>
	<path fill="#FFFFFF" d="M19.275,23.751c-1.117,0-2.024-0.903-2.024-2.021c0-4.915-3.999-8.913-8.914-8.913
		c-1.116,0-2.024-0.908-2.024-2.022c0-1.118,0.908-2.024,2.024-2.024c7.147,0,12.962,5.814,12.962,12.96
		C21.299,22.848,20.393,23.751,19.275,23.751z"/>
	<path fill="#FFFFFF" d="M27.385,23.751c-1.117,0-2.021-0.903-2.021-2.021c0-9.387-7.639-17.026-17.026-17.026
		c-1.116,0-2.024-0.904-2.024-2.019c0-1.12,0.908-2.025,2.024-2.025c11.618,0,21.071,9.453,21.071,21.07
		C29.408,22.848,28.502,23.751,27.385,23.751z"/>
</g>
</svg>
