<?xml version="1.0" encoding="utf-8"?>
<!-- Generator: Adobe Illustrator 16.0.0, SVG Export Plug-In . SVG Version: 6.00 Build 0)  -->
<!DOCTYPE svg PUBLIC "-//W3C//DTD SVG 1.1//EN" "http://www.w3.org/Graphics/SVG/1.1/DTD/svg11.dtd">
<svg version="1.1" id="Layer_1" xmlns="http://www.w3.org/2000/svg" xmlns:xlink="http://www.w3.org/1999/xlink" x="0px" y="0px"
	 width="30px" height="30px" viewBox="0 0 30 30" enable-background="new 0 0 30 30" xml:space="preserve">
<g>
	<polygon fill="#FFFFFF" points="1.924,19.947 1.256,24.632 0.594,29.315 5.279,28.654 9.965,27.984 5.947,23.965 	"/>
	<polygon fill="#FFFFFF" points="11.289,23.939 9.951,22.602 22.004,10.544 19.32,7.865 7.266,19.916 5.926,18.58 17.986,6.526 
		16.645,5.186 3.252,18.58 11.289,26.614 24.68,13.219 23.344,11.883 	"/>
	<path fill="#FFFFFF" d="M28.84,6.612L23.484,1.25c-0.738-0.731-1.92-0.758-2.623-0.053L20.73,1.393L20.697,1.36l-2.572,2.573
		l8.035,8.037l2.574-2.57l-0.037-0.038l0.197-0.127C29.6,8.53,29.574,7.342,28.84,6.612z"/>
</g>
</svg>
