<?xml version="1.0" encoding="utf-8"?>
<!-- Generator: Adobe Illustrator 16.0.0, SVG Export Plug-In . SVG Version: 6.00 Build 0)  -->
<!DOCTYPE svg PUBLIC "-//W3C//DTD SVG 1.1//EN" "http://www.w3.org/Graphics/SVG/1.1/DTD/svg11.dtd">
<svg version="1.1" id="Layer_1" xmlns="http://www.w3.org/2000/svg" xmlns:xlink="http://www.w3.org/1999/xlink" x="0px" y="0px"
	 width="85px" height="85px" viewBox="0 0 85 85" enable-background="new 0 0 85 85" xml:space="preserve">
<g>
	<path fill="#FEC872" d="M42.5,84.91c-23.384,0-42.411-19.023-42.411-42.409S19.116,0.09,42.5,0.09
		c23.387,0,42.412,19.025,42.412,42.411S65.887,84.91,42.5,84.91z M42.5,6.516c-19.841,0-35.986,16.143-35.986,35.985
		c0,19.843,16.146,35.983,35.986,35.983c19.844,0,35.986-16.141,35.986-35.983C78.486,22.659,62.344,6.516,42.5,6.516z"/>
	<g>
		<path fill="#FEC872" d="M58.119,38.747v-7.455h-1.471v-0.014H43.902v-5.255c2.916-0.593,5.113-3.171,5.113-6.264
			c0-3.533-2.863-6.396-6.395-6.396c-3.531,0-6.392,2.863-6.392,6.396c0,2.956,2.007,5.434,4.73,6.166v5.353H27.332v0.002h-0.244
			v7.396c-2.104,0.63-3.638,2.58-3.638,4.892c0,2.82,2.284,5.105,5.105,5.105s5.107-2.285,5.107-5.105
			c0-2.306-1.528-4.254-3.628-4.89v-4.459h10.924v4.437c-2.146,0.605-3.72,2.572-3.72,4.913c0,2.82,2.286,5.105,5.105,5.105
			c2.821,0,5.108-2.285,5.108-5.105c0-2.28-1.492-4.207-3.551-4.865v-4.484h11.273v4.405c-2.205,0.564-3.84,2.559-3.84,4.944
			c0,2.82,2.285,5.105,5.105,5.105s5.107-2.285,5.107-5.105C61.549,41.334,60.115,39.443,58.119,38.747z"/>
		<g>
			<circle fill="#FEC872" cx="20" cy="58.699" r="4.938"/>
			<rect x="19.226" y="49.449" fill="#FEC872" width="47.28" height="2.25"/>
			<rect x="19.226" y="49.574" fill="#FEC872" width="2.25" height="8.125"/>
			<circle fill="#FEC872" cx="31.25" cy="58.699" r="4.938"/>
			<rect x="30.476" y="49.574" fill="#FEC872" width="2.25" height="8.125"/>
			<circle fill="#FEC872" cx="42.5" cy="58.699" r="4.938"/>
			<rect x="41.726" y="49.574" fill="#FEC872" width="2.251" height="8.125"/>
			<circle fill="#FEC872" cx="53.75" cy="58.699" r="4.938"/>
			<rect x="52.977" y="49.574" fill="#FEC872" width="2.25" height="8.125"/>
			<circle fill="#FEC872" cx="65" cy="58.699" r="4.938"/>
			<rect x="64.227" y="49.574" fill="#FEC872" width="2.25" height="8.125"/>
		</g>
	</g>
</g>
</svg>
