<?xml version="1.0" encoding="utf-8"?>
<!-- Generator: Adobe Illustrator 16.0.0, SVG Export Plug-In . SVG Version: 6.00 Build 0)  -->
<!DOCTYPE svg PUBLIC "-//W3C//DTD SVG 1.1//EN" "http://www.w3.org/Graphics/SVG/1.1/DTD/svg11.dtd">
<svg version="1.1" id="Layer_1" xmlns="http://www.w3.org/2000/svg" xmlns:xlink="http://www.w3.org/1999/xlink" x="0px" y="0px"
	 width="48px" height="41px" viewBox="0 0 48 41" enable-background="new 0 0 48 41" xml:space="preserve">
<g>
	<path fill="#0099FF" d="M48,38c0,1.643-1.324,2.977-2.959,2.977H2.961C1.324,40.977,0,39.643,0,38V2.952
		c0-1.644,1.324-2.976,2.961-2.976h42.08C46.676-0.024,48,1.308,48,2.952V38z"/>
	<path fill="#FFFFFF" d="M24,2.745c-9.777,0-17.732,7.954-17.732,17.731c0,9.776,7.955,17.731,17.732,17.731
		s17.732-7.955,17.732-17.731C41.732,10.699,33.777,2.745,24,2.745z M24,35.521c-8.295,0-15.045-6.75-15.045-15.045
		c0-7.82,5.998-14.264,13.635-14.977v10.672h-8.576v7.1c-1.121,0.451-1.912,1.547-1.912,2.83c0,1.686,1.365,3.053,3.051,3.053
		s3.053-1.367,3.053-3.053c0-1.373-0.908-2.533-2.156-2.916v-4.98h6.553v5.035c-1.166,0.43-1.998,1.547-1.998,2.861
		c0,1.686,1.365,3.053,3.051,3.053s3.053-1.367,3.053-3.053c0-1.342-0.867-2.479-2.07-2.887v-5.009h6.818v4.988
		c-1.236,0.389-2.133,1.545-2.133,2.908c0,1.686,1.367,3.053,3.053,3.053s3.053-1.367,3.053-3.053c0-1.291-0.805-2.393-1.938-2.838
		v-7.092h-8.865V5.447c8.006,0.328,14.42,6.941,14.42,15.029C39.045,28.771,32.297,35.521,24,35.521z"/>
</g>
</svg>
