<?xml version="1.0" encoding="utf-8"?>
<!-- Generator: Adobe Illustrator 16.0.0, SVG Export Plug-In . SVG Version: 6.00 Build 0)  -->
<!DOCTYPE svg PUBLIC "-//W3C//DTD SVG 1.1//EN" "http://www.w3.org/Graphics/SVG/1.1/DTD/svg11.dtd">
<svg version="1.1" id="Layer_1" xmlns="http://www.w3.org/2000/svg" xmlns:xlink="http://www.w3.org/1999/xlink" x="0px" y="0px"
	 width="48px" height="41px" viewBox="0 0 48 41" enable-background="new 0 0 48 41" xml:space="preserve">
<g>
	<g>
		<path fill="#CCCCCC" d="M45.04,0.476c1.356,0,2.46,1.11,2.46,2.476V38c0,1.365-1.104,2.477-2.46,2.477H2.96
			c-1.356,0-2.46-1.111-2.46-2.477V2.951c0-1.365,1.104-2.476,2.46-2.476H45.04 M45.04-0.024H2.96C1.324-0.024,0,1.308,0,2.951V38
			c0,1.643,1.324,2.977,2.96,2.977h42.08c1.636,0,2.96-1.334,2.96-2.977V2.951C48,1.308,46.676-0.024,45.04-0.024L45.04-0.024z"/>
	</g>
	<g opacity="0.5">
		<g>
			<rect x="12.089" y="8.143" fill="#999999" width="18.428" height="6.782"/>
		</g>
		<g>
			<rect x="12.09" y="17.107" fill="#999999" width="29.498" height="6.781"/>
		</g>
		<g>
			<rect x="12.089" y="26.072" fill="#999999" width="24.669" height="6.781"/>
		</g>
		<rect x="6.413" y="4.671" fill="#999999" width="3.203" height="31.608"/>
	</g>
</g>
</svg>
