<?xml version="1.0" encoding="utf-8"?>
<!-- Generator: Adobe Illustrator 16.0.0, SVG Export Plug-In . SVG Version: 6.00 Build 0)  -->
<!DOCTYPE svg PUBLIC "-//W3C//DTD SVG 1.1//EN" "http://www.w3.org/Graphics/SVG/1.1/DTD/svg11.dtd">
<svg version="1.1" id="Layer_1" xmlns="http://www.w3.org/2000/svg" xmlns:xlink="http://www.w3.org/1999/xlink" x="0px" y="0px"
	 width="80.505px" height="44.717px" viewBox="0 0 80.505 44.717" enable-background="new 0 0 80.505 44.717" xml:space="preserve">
<g>
	<g>
		<polyline fill="#FFFFFF" points="36.299,4.078 36.299,4.07 36.296,4.074 36.299,4.078 		"/>
		<path fill="#FFFFFF" d="M42.541,5.64c-0.003-0.005-0.007-0.01-0.011-0.016c0,0.003,0,0.007,0.006,0.01
			C42.538,5.636,42.538,5.636,42.541,5.64"/>
		<polyline fill="#FFFFFF" points="44.206,13.313 44.206,13.32 44.208,13.315 44.206,13.315 		"/>
		<path fill="#FFFFFF" d="M37.964,11.75c0.005,0.006,0.009,0.011,0.012,0.016c-0.001-0.002-0.002-0.005-0.002-0.009
			C37.967,11.753,37.967,11.753,37.964,11.75"/>
		<path fill="#FFFFFF" d="M30.749,15.61l6.4-4.283c-0.143-0.288-0.274-0.586-0.396-0.89l-6.338,4.243
			C30.53,15.012,30.646,15.328,30.749,15.61"/>
		<path fill="#FFFFFF" d="M30.222,14.136l6.323-4.233c-0.174-0.478-0.326-0.972-0.454-1.478l-6.344,4.247
			C29.885,13.13,30.053,13.635,30.222,14.136"/>
		<path fill="#FFFFFF" d="M31.038,16.391c0.099,0.263,0.161,0.426,0.161,0.426l6.56-4.428c-0.077-0.114-0.149-0.232-0.221-0.352
			L31.038,16.391z"/>
		<path fill="#FFFFFF" d="M39.858,2.447c0.018,0.01,0.037,0.018,0.058,0.031c-2.237-1.693-4.131-1.741-5.748-1.24
			c-3.61,1.123-5.818,5.278-4.669,10.509c0.043,0.19,0.098,0.41,0.166,0.648l6.354-4.254c-0.76-3.242-0.479-6.655,2.012-6.372
			c-0.462,0-1.135,0.205-1.551,1.33C36.4,3.317,36.333,3.646,36.299,4.07c1.609-2.801,5.098,0.121,6.231,1.553
			C41.739,4.28,40.847,3.131,39.858,2.447"/>
		<path fill="#FFFFFF" d="M49.783,1.85L43.39,6.131c0.141,0.29,0.27,0.586,0.393,0.891l6.336-4.241
			C50.001,2.451,49.89,2.136,49.783,1.85"/>
		<path fill="#FFFFFF" d="M50.309,3.327L43.987,7.56c0.17,0.478,0.321,0.976,0.447,1.481l6.344-4.248
			C50.646,4.338,50.48,3.831,50.309,3.327"/>
		<path fill="#FFFFFF" d="M50.86,5.07l-6.357,4.257c0.737,3.217,0.443,6.574-2.027,6.292c0.459,0,1.133-0.203,1.549-1.33
			c0.082-0.217,0.146-0.546,0.182-0.97c-1.609,2.8-5.097-0.119-6.23-1.554c0.789,1.344,1.682,2.493,2.67,3.178
			c-0.019-0.011-0.035-0.018-0.056-0.03c2.235,1.691,4.129,1.739,5.746,1.237c3.609-1.121,5.818-5.276,4.669-10.507
			C50.968,5.473,50.917,5.279,50.86,5.07"/>
		<path fill="#FFFFFF" d="M49.495,1.069c-0.113-0.305-0.19-0.497-0.19-0.497L42.749,5c0.088,0.134,0.174,0.272,0.256,0.413
			L49.495,1.069z"/>
	</g>
	<g>
		<path fill="#FFFFFF" d="M78.905,33.698v-1.081l0.367,1.081h0.152l0.369-1.063v1.063h0.161v-1.271h-0.228l-0.303,0.885
			c-0.031,0.09-0.055,0.158-0.066,0.204c-0.014-0.044-0.033-0.104-0.062-0.19l-0.301-0.898h-0.25v1.271H78.905z M78.153,33.698
			v-1.12h0.422v-0.15h-1.008v0.15h0.42v1.12H78.153z M53.622,20.474v2.285h4.456v10.937h2.288V22.759h4.454v-2.285H53.622z
			 M77.667,20.474v1.231c0,2.386-1.938,4.327-4.322,4.327v-0.006c-2.387,0-4.324-1.941-4.324-4.326v-1.227h-2.288v1.231
			c0.004,3.254,2.368,5.965,5.47,6.507v5.483h2.286v-5.478c3.099-0.543,5.467-3.256,5.467-6.513v-1.231H77.667z M51.477,20.474
			h-2.281v13.222h2.281V20.474z M51.477,33.696 M33.734,20.474H31.45v13.222h2.285V20.474z M42.431,20.474
			c-3.644,0.003-6.604,2.968-6.604,6.609H35.82c0,3.646,2.965,6.612,6.61,6.612h4.451v-2.288h-4.451
			c-2.383,0-4.325-1.938-4.325-4.324h0.004c0-2.383,1.939-4.324,4.328-4.324h4.444v-2.285H42.431z M18.199,33.696v-6.845
			c0-2.384,1.938-4.325,4.326-4.325v0.006c2.384,0,4.325,1.939,4.325,4.325v6.839h2.285v-6.845c-0.001-3.644-2.966-6.604-6.61-6.604
			V20.24c-3.645,0-6.61,2.968-6.61,6.611v6.845H18.199z M13.771,20.474v6.845c0,3.645-2.964,6.609-6.61,6.609v-0.003
			c-3.644,0-6.609-2.965-6.611-6.606v-6.845h2.286v6.839c0,2.387,1.941,4.325,4.325,4.325v0.006c2.385,0,4.325-1.941,4.325-4.325
			v-6.845H13.771z"/>
		<path fill="#FFFFFF" d="M29.852,40.735c0.702,0,1.301,0.542,1.422,1.265h-2.842C28.555,41.275,29.151,40.735,29.852,40.735
			 M31.616,42.259c-0.001-0.29-0.067-0.568-0.188-0.824c-0.263-0.545-0.758-0.922-1.326-1.01c-0.036-0.006-0.072-0.009-0.104-0.014
			l-0.033-0.002c-0.073-0.005-0.151-0.005-0.23,0l-0.027,0.003c-0.033,0.004-0.061,0.007-0.094,0.011l-0.023,0.003
			c-0.039,0.007-0.073,0.013-0.11,0.022l-0.021,0.004c-0.031,0.007-0.062,0.016-0.091,0.025l-0.024,0.007
			c-0.071,0.021-0.14,0.05-0.209,0.083l-0.018,0.01c-0.031,0.013-0.054,0.026-0.083,0.041l-0.018,0.011
			c-0.034,0.02-0.067,0.042-0.106,0.065c-0.031,0.021-0.058,0.041-0.088,0.062l-0.01,0.009c-0.224,0.175-0.409,0.405-0.536,0.669
			c-0.124,0.258-0.188,0.549-0.188,0.84c0,0.294,0.062,0.578,0.188,0.84c0.259,0.542,0.75,0.918,1.312,1.008l0.013,0.001
			c0.037,0.005,0.073,0.01,0.108,0.013l0.027,0.003c0.036,0.003,0.075,0.004,0.116,0.004c0.038,0,0.077-0.001,0.114-0.004
			l0.033-0.003c0.03-0.003,0.06-0.007,0.093-0.011l0.021-0.003c0.036-0.005,0.071-0.014,0.107-0.021l0.025-0.005
			c0.031-0.007,0.059-0.017,0.087-0.024l0.025-0.009c0.07-0.021,0.142-0.049,0.209-0.082l0.019-0.011
			c0.034-0.014,0.064-0.031,0.097-0.049l0.01-0.006c0.033-0.019,0.065-0.038,0.1-0.062c0.032-0.021,0.064-0.044,0.084-0.062
			l0.021-0.01l0.002-0.005c0.221-0.173,0.403-0.402,0.529-0.662c0.043-0.091,0.081-0.189,0.11-0.291l0.024-0.088h-0.333
			l-0.017,0.046c-0.201,0.618-0.748,1.032-1.36,1.032c-0.725,0-1.34-0.576-1.433-1.342c-0.004-0.048-0.007-0.093-0.009-0.145h3.206
			V42.259z"/>
		<path fill="#FFFFFF" d="M44.333,42h-2.84c0.123-0.725,0.721-1.265,1.42-1.265S44.21,41.275,44.333,42 M44.679,42.259
			c-0.001-0.289-0.066-0.567-0.19-0.824c-0.26-0.545-0.755-0.922-1.325-1.01c-0.034-0.006-0.07-0.009-0.104-0.014L43.03,40.41
			c-0.078-0.004-0.155-0.004-0.232,0l-0.029,0.003c-0.031,0.002-0.061,0.007-0.092,0.011l-0.021,0.003
			c-0.039,0.007-0.078,0.013-0.111,0.022l-0.021,0.004c-0.03,0.007-0.061,0.016-0.092,0.025l-0.023,0.007
			c-0.07,0.022-0.143,0.052-0.211,0.083l-0.02,0.01c-0.025,0.013-0.055,0.026-0.082,0.041l-0.022,0.014
			c-0.03,0.02-0.063,0.039-0.1,0.064c-0.03,0.021-0.06,0.039-0.091,0.061l-0.006,0.009c-0.226,0.175-0.412,0.405-0.537,0.669
			c-0.125,0.258-0.19,0.549-0.19,0.84c0,0.294,0.063,0.578,0.19,0.84c0.26,0.543,0.754,0.922,1.324,1.009
			c0.036,0.005,0.07,0.01,0.106,0.013l0.026,0.003c0.039,0.003,0.077,0.004,0.117,0.004l0,0c0.039,0,0.076-0.001,0.115-0.004
			l0.031-0.003c0.031-0.003,0.061-0.007,0.094-0.01l0.02-0.004c0.037-0.005,0.074-0.014,0.11-0.021l0.023-0.005
			c0.028-0.007,0.06-0.017,0.086-0.024l0.027-0.008c0.071-0.022,0.142-0.049,0.21-0.083l0.019-0.011
			c0.033-0.014,0.065-0.031,0.099-0.051c0.035-0.02,0.069-0.041,0.107-0.066c0.033-0.021,0.064-0.044,0.092-0.064l0.02-0.016
			l0.002-0.002c0.219-0.174,0.399-0.4,0.521-0.656c0.046-0.092,0.083-0.19,0.111-0.291l0.026-0.088h-0.334l-0.016,0.046
			c-0.203,0.618-0.754,1.032-1.363,1.032c-0.723,0-1.34-0.576-1.432-1.342c-0.005-0.049-0.008-0.095-0.012-0.143h3.212
			L44.679,42.259z"/>
		<path fill="#FFFFFF" d="M53.17,40.735c0.699,0,1.3,0.54,1.421,1.265h-2.84C51.874,41.275,52.472,40.735,53.17,40.735
			 M54.936,42.259c-0.001-0.289-0.065-0.567-0.188-0.824c-0.262-0.545-0.754-0.922-1.324-1.01c-0.037-0.006-0.072-0.009-0.105-0.014
			l-0.031-0.002c-0.074-0.004-0.152-0.005-0.23,0l-0.029,0.003c-0.031,0.004-0.06,0.007-0.092,0.011l-0.023,0.003
			c-0.036,0.007-0.072,0.013-0.109,0.022l-0.022,0.004c-0.029,0.007-0.062,0.016-0.089,0.025l-0.027,0.007
			c-0.07,0.022-0.139,0.052-0.209,0.083l-0.02,0.01c-0.029,0.013-0.056,0.026-0.081,0.041l-0.009,0.007c0,0-0.003,0.001-0.006,0.003
			l-0.016,0.008c-0.029,0.017-0.059,0.036-0.095,0.059c-0.032,0.023-0.063,0.044-0.096,0.071c-0.224,0.173-0.41,0.404-0.536,0.669
			c-0.126,0.258-0.189,0.549-0.189,0.84c0,0.294,0.062,0.578,0.189,0.84c0.258,0.541,0.748,0.918,1.311,1.008l0.012,0.001
			c0.038,0.005,0.072,0.01,0.107,0.013l0.026,0.003c0.042,0.003,0.079,0.004,0.117,0.004c0.04,0,0.078-0.001,0.116-0.004
			l0.031-0.003c0.029-0.003,0.061-0.007,0.092-0.011l0.023-0.003c0.037-0.005,0.072-0.014,0.107-0.021l0.021-0.005
			c0.033-0.007,0.063-0.017,0.091-0.024l0.026-0.009c0.068-0.021,0.139-0.049,0.211-0.082l0.018-0.011
			c0.031-0.014,0.064-0.031,0.099-0.051s0.069-0.041,0.106-0.066c0.033-0.021,0.064-0.043,0.092-0.064l0.02-0.016l0.002-0.002
			c0.22-0.174,0.398-0.399,0.521-0.656c0.043-0.092,0.082-0.19,0.112-0.29l0.024-0.089H54.55l-0.017,0.046
			c-0.204,0.618-0.749,1.032-1.363,1.032c-0.722,0-1.336-0.576-1.432-1.342c-0.005-0.047-0.008-0.092-0.009-0.145h3.206V42.259z"/>
		<path fill="#FFFFFF" d="M60.687,40.735c0.701,0,1.301,0.542,1.421,1.265h-2.843C59.389,41.275,59.987,40.735,60.687,40.735
			 M62.448,42.259c0-0.289-0.065-0.567-0.186-0.824c-0.263-0.545-0.756-0.922-1.326-1.01c-0.033-0.006-0.07-0.009-0.105-0.014
			l-0.027-0.002c-0.078-0.004-0.154-0.005-0.23,0l-0.033,0.003c-0.029,0.004-0.061,0.007-0.09,0.011l-0.023,0.003
			c-0.038,0.007-0.073,0.013-0.11,0.022l-0.023,0.004c-0.03,0.007-0.058,0.016-0.089,0.025l-0.023,0.007
			c-0.073,0.022-0.143,0.052-0.211,0.083l-0.018,0.008c-0.03,0.015-0.057,0.028-0.086,0.043l-0.027,0.018l0,0
			c-0.031,0.017-0.061,0.036-0.096,0.059c-0.029,0.021-0.057,0.041-0.086,0.062l-0.025,0.021c-0.219,0.173-0.396,0.399-0.521,0.657
			c-0.126,0.258-0.19,0.549-0.19,0.84c0,0.294,0.064,0.578,0.19,0.84c0.26,0.541,0.748,0.918,1.311,1.008l0.014,0.001
			c0.036,0.005,0.072,0.01,0.105,0.013l0.03,0.003c0.038,0.003,0.076,0.004,0.116,0.004l0,0c0.039,0,0.078-0.001,0.123-0.004
			l0.025-0.003c0.027-0.003,0.057-0.007,0.092-0.011l0.019-0.003c0.038-0.005,0.074-0.014,0.11-0.021l0.023-0.005
			c0.029-0.007,0.061-0.017,0.086-0.024l0.026-0.009c0.069-0.021,0.141-0.049,0.212-0.082l0.016-0.011
			c0.035-0.014,0.066-0.031,0.099-0.049l0.021-0.01l0,0c0.027-0.02,0.059-0.037,0.09-0.059c0.029-0.019,0.057-0.039,0.087-0.062
			l0.021-0.008l0.004-0.013c0.221-0.174,0.4-0.399,0.523-0.656c0.043-0.092,0.08-0.19,0.11-0.291l0.025-0.088h-0.333l-0.018,0.046
			c-0.203,0.618-0.749,1.032-1.361,1.032c-0.726,0-1.339-0.576-1.432-1.342c-0.006-0.049-0.01-0.095-0.012-0.145h3.209
			L62.448,42.259z"/>
		<polygon fill="#FFFFFF" points="28.206,40.495 27.75,40.495 25.57,42.674 25.57,38.857 25.247,38.857 25.247,44.047 25.57,44.047 
			25.57,43.132 25.571,43.131 26.362,42.34 27.776,44.047 28.201,44.047 26.599,42.103 		"/>
		<polygon fill="#FFFFFF" points="17.741,41.529 15.816,38.856 15.524,38.856 15.524,44.047 15.847,44.047 15.847,39.461 
			17.741,42.093 19.63,39.461 19.63,44.047 19.954,44.047 19.954,38.856 19.668,38.856 		"/>
		<polygon fill="#FFFFFF" points="35.339,38.857 35.017,38.857 35.017,44.047 37.991,44.047 37.991,43.726 35.339,43.726 		"/>
		<rect x="38.742" y="40.495" fill="#FFFFFF" width="0.32" height="3.553"/>
		<path fill="#FFFFFF" d="M41.331,40.495h-1.043v-0.327c0-0.512,0.464-0.975,0.975-0.975h0.068v-0.336h-0.068
			c-0.719,0-1.306,0.588-1.306,1.311v3.88h0.331v-3.224h1.043V40.495z"/>
		<path fill="#FFFFFF" d="M55.917,38.857h-0.326v3.979c0,0.722,0.582,1.31,1.301,1.31h0.068v-0.337h-0.068
			c-0.509,0-0.975-0.465-0.975-0.973v-2.012h1.043v-0.329h-1.043V38.857z"/>
		<path fill="#FFFFFF" d="M57.688,38.857H57.36v3.979c0,0.722,0.584,1.31,1.305,1.31h0.068v-0.337h-0.068
			c-0.518,0-0.977-0.455-0.977-0.973v-2.012h1.045v-0.329h-1.045V38.857z"/>
		<path fill="#FFFFFF" d="M49.162,41.095h-0.999v-1.92h0.998c0.533,0.014,0.957,0.437,0.965,0.965
			C50.118,40.675,49.695,41.095,49.162,41.095 M49.495,43.728h-1.332v-2.3h1.332c0.629,0,1.143,0.513,1.143,1.144
			C50.638,43.22,50.134,43.728,49.495,43.728 M49.927,41.171c0.33-0.242,0.523-0.617,0.523-1.031c0-0.709-0.578-1.283-1.288-1.283
			h-1.319v5.19h1.652c0.809,0,1.469-0.663,1.469-1.476C50.964,41.922,50.537,41.359,49.927,41.171"/>
		<path fill="#FFFFFF" d="M65.063,40.406c-0.291,0-0.58,0.065-0.842,0.191c-0.278,0.133-0.523,0.334-0.699,0.578v-0.681h-0.328
			v3.553h0.328V42.16c0.009-0.717,0.584-1.328,1.342-1.42c0.07-0.009,0.136-0.012,0.199-0.012h0.068v-0.322H65.063z"/>
		<path fill="#FFFFFF" d="M22.503,40.735c0.796,0,1.445,0.689,1.445,1.54c0,0.853-0.649,1.547-1.445,1.547
			c-0.795,0-1.444-0.694-1.444-1.547C21.059,41.424,21.708,40.735,22.503,40.735 M23.949,41.207
			c-0.329-0.494-0.873-0.801-1.445-0.801c-0.974,0-1.767,0.839-1.767,1.869c0,1.029,0.793,1.868,1.767,1.868
			c0.584,0,1.118-0.301,1.445-0.796v0.7h0.32v-3.553h-0.32V41.207z"/>
		<path fill="#FFFFFF" d="M38.901,39.549c-0.107,0-0.195,0.087-0.195,0.194s0.088,0.195,0.195,0.195
			c0.108,0,0.197-0.088,0.197-0.195S39.009,39.549,38.901,39.549"/>
	</g>
</g>
</svg>
